<?xml version="1.0" standalone="no"?>
<!DOCTYPE svg PUBLIC "-//W3C//DTD SVG 20010904//EN"
 "http://www.w3.org/TR/2001/REC-SVG-20010904/DTD/svg10.dtd">
<svg version="1.0" xmlns="http://www.w3.org/2000/svg"
 width="500.000000pt" height="500.000000pt" viewBox="0 0 500.000000 500.000000"
 preserveAspectRatio="xMidYMid meet">
<metadata>
Created by potrace 1.11, written by Peter Selinger 2001-2013
</metadata>
<g transform="translate(0.000000,500.000000) scale(0.100000,-0.100000)"
fill="#000000" stroke="none">
<path d="M2935 4369 c-605 -347 -1106 -636 -1114 -642 -8 -7 -23 -32 -34 -56
-28 -63 -17 -122 31 -171 25 -25 397 -247 1107 -658 589 -341 1081 -625 1094
-632 35 -18 122 -8 158 18 66 47 61 -40 69 1359 7 1198 6 1274 -10 1318 -25
64 -73 95 -146 95 -56 0 -62 -4 -1155 -631z"/>
<path d="M840 2781 c-19 -10 -44 -32 -56 -49 -20 -29 -21 -47 -27 -408 -4
-207 -7 -787 -7 -1288 0 -867 1 -913 19 -952 25 -56 73 -84 143 -84 53 0 69 9
1073 586 561 322 1061 610 1110 639 105 62 129 94 129 170 0 80 -23 107 -154
185 -141 83 -1973 1145 -2051 1189 -65 36 -126 41 -179 12z"/>
</g>
</svg>
